<?xml version='1.0' encoding='utf-8'?>
<svg xmlns="http://www.w3.org/2000/svg" viewBox="0 0 4095 4095"> <path transform="scale(4)" d="m760.96 716.97 142.04 0.014-7.714 13.642-14.251 23.113c-24.802 38.233-54.504 71.3-88.844 101.16-0.174-7.002-1.682-13.921-3.053-20.769l-6.871-30.931-14.212-60.103-4.615-16.624c-0.898-3.132-2.073-6.258-2.484-9.497z" fill="#1E7E68"/> <path transform="scale(4)" d="m119.9 716.98 143.64-0.022-33.852 137.1c-22.934-18.012-43.343-39.821-61.463-62.604-18.365-23.092-35.018-48.112-48.323-74.473z" fill="#1E7E68"/> <path transform="scale(4)" d="m563.85 536.36 0.143 10.431 0.029 14.015c0.019 3.089-0.148 6.106 0.691 9.11l0.122 0.453c10.515 10.413 24.786 19.33 38.073 25.75l42.224 13.467 15.207 5.913c10.099 4.46 19.545 8.25 30.49 10.025 4.776 0.775 9.622 2.633 14.065 4.525 11.909 5.072 22.775 12.199 30.431 22.849 5.45 7.58 9.383 16.914 12.668 25.607l7.056 21c1.292 4.258 2.274 8.686 3.821 12.853 0.468 1.26 1.069 3.152 1.978 4.125l0.116 0.495c0.411 3.239 1.586 6.365 2.484 9.497l4.615 16.624 14.212 60.103 6.871 30.931c1.371 6.848 2.879 13.767 3.053 20.769l-29.15 22.071c-22.459 15.426-46.094 28.378-70.698 40.034l-26.347 11.121c-18.938 6.275-37.676 12.317-57.175 16.693-44.392 9.962-89.966 12.807-135.27 9.128-17.692-1.437-35.435-3.611-52.806-7.339-22.244-4.775-43.559-11.58-65.068-18.859l-25.714-10.776c-36.634-16.286-68.855-38.265-100.29-62.914l33.852-137.1 8.309-27.457 8.667-19.75c4.34-8.247 9.853-15.578 16.303-22.277 8.785-9.123 18.618-15.992 30.401-20.723 4.427-1.777 9.15-2.904 13.731-4.213l23.952-6.999 12.222-4.262c5.465-2.914 11.855-4.424 17.744-6.225l27.663-8.438c7.116-2.411 12.813-6.116 19.093-10.112l17.28-10.973c2.281-2.995 1.126-20.678 1.109-25.425l0.029-11.45c2.748 1.544 5.32 3.405 8.103 4.88 10.304 5.46 21.551 9.415 33.079 11.148 22.862 3.437 44.447-4.89 62.629-18.326z" fill="#1A3983"/> <path transform="scale(4)" d="m510.02 853.51 2.806 0.621c-0.375 0.538-0.88 1.006-1.125 1.615-0.619 1.543-0.027 5.935 0.078 7.641l0.891 16.918c0.433 9.114 2.391 62.784-0.421 66.623l-2.625-0.096c-1.456-2.172 0.503-80.917 0.396-93.322z" fill="#0B286C"/> <path transform="scale(4)" d="m666 928.12c-0.651-1.135-0.924-2.069-0.885-3.373 0.236-8.021 2-16.247 3.042-24.213l6.83-51.527 9.864-71.448 4.451-27.707 3.045 167.15-26.347 11.121z" fill="#0B286C"/> <path transform="scale(4)" d="m329.97 916.97 5.23-182.31 0.624 0.338 12.23 116 5.312 45.75c1.079 10.025 2.759 20.415 2.319 30.482l-1e-3 0.514-25.714-10.776z" fill="#0B286C"/> <path transform="scale(4)" d="m377.12 611.28 11.565 92.935 27.87-4.176-21.449 56.663 88.062 70.525 16.326 12.928c1.828 1.424 5.51 3.604 6.695 5.436 0.864 1.335 1.471 4.364 1.866 5.943l-0.82 0.877c-4.432 0.185-7.86-0.211-11.876-2.328-5.971-3.149-11.627-7.956-17.169-11.873l-48.289-35.661c-15.822-11.846-32.866-22.659-47.814-35.55l16.55-47.977-23.606 1.028-10.133-104.51 12.222-4.262z" fill="#0B286C"/> <path transform="scale(4)" d="m645.13 609.58 15.207 5.913-10.378 106.71-28.018-3.394 20.077 46.982-24.143 18.279-41.795 32.039-29.968 22.816c-5.291 4.03-10.715 8.961-16.523 12.127-4.286 2.336-9.163 3.148-14.015 2.84-0.941-0.06-0.627-0.017-1.521-0.453 1-1.197 2.109-2.437 2.863-3.807 1.021-1.856 1.627-4.069 3.042-5.675 2.791-3.17 7.365-5.763 10.742-8.327l14.115-11.388 82.403-67.1c-0.616-4.449-3.966-10.414-5.665-14.703l-16.286-41.145 30.555 4.959 9.308-96.67z" fill="#0B286C"/> <path transform="scale(4)" d="m563.85 536.36 0.143 10.431 0.029 14.015c0.019 3.089-0.148 6.106 0.691 9.11l0.122 0.453c10.515 10.413 24.786 19.33 38.073 25.75l42.224 13.467-9.308 96.67-30.555-4.959 16.286 41.145c1.699 4.289 5.049 10.254 5.665 14.703l-82.403 67.1-14.115 11.388c-3.377 2.564-7.951 5.157-10.742 8.327-1.415 1.606-2.021 3.819-3.042 5.675-0.754 1.37-1.863 2.61-2.863 3.807l-1.227 0.698-2.806-0.621c-0.71-0.588-1.328-1.318-1.966-1.984-0.395-1.579-1.002-4.608-1.866-5.943-1.185-1.832-4.867-4.012-6.695-5.436l-16.326-12.928-88.062-70.525 21.449-56.663-27.87 4.176-11.565-92.935c5.465-2.914 11.855-4.424 17.744-6.225l27.663-8.438c7.116-2.411 12.813-6.116 19.093-10.112l17.28-10.973c2.281-2.995 1.126-20.678 1.109-25.425l0.029-11.45c2.748 1.544 5.32 3.405 8.103 4.88 10.304 5.46 21.551 9.415 33.079 11.148 22.862 3.437 44.447-4.89 62.629-18.326z" fill="#F8B24B"/> <path transform="scale(4)" d="m458.9 575.53c3.821 7.243 12.009 13.47 17.806 19.264l33.769 33.881c-3.241 0.579-6.337 1.192-9.475 2.208l-0.832 0.264c-6.751 2.221-11.236 6.035-16.091 11.054l-23.75 19.226c-4.07 3.311-8.042 7.022-12.462 9.845-0.41-2.439-1.541-5.117-2.348-7.454l-4.784-13.806-18.206-53.397c7.116-2.411 12.813-6.116 19.093-10.112l17.28-10.973z" fill="#FEFEFE"/> <path transform="scale(4)" d="m564.83 570.36c10.515 10.413 24.786 19.33 38.073 25.75l-27.237 75.31c-6.221-6.498-13.564-12.105-20.465-17.87-4.708-3.933-9.163-8.184-14.27-11.609-7.744-7.285-15.366-11.476-25.944-13.264 4.645-6.142 11.187-11.582 16.656-17.065l34.204-34.41-1.017-6.842z" fill="#FEFEFE"/> <path transform="scale(4)" d="m563.85 536.36 0.143 10.431 0.029 14.015c0.019 3.089-0.148 6.106 0.691 9.11l0.122 0.453 1.017 6.842-34.204 34.41c-5.469 5.483-12.011 10.923-16.656 17.065-1.424-0.03-3.126-0.231-4.516-8e-3l-33.769-33.881c-5.797-5.794-13.985-12.021-17.806-19.264 2.281-2.995 1.126-20.678 1.109-25.425l0.029-11.45c2.748 1.544 5.32 3.405 8.103 4.88 10.304 5.46 21.551 9.415 33.079 11.148 22.862 3.437 44.447-4.89 62.629-18.326z" fill="#F8B24B"/> <path transform="scale(4)" d="m563.85 536.36 0.143 10.431c-3.791 3.717-7.698 7.458-12.221 10.289-11.731 7.346-26.384 9.785-40.021 9.627-4.13-0.048-8.199-0.234-12.261-1.018-8.818-1.703-18.199-5.146-26.335-8.971l-13.145-6.61 0.029-11.45c2.748 1.544 5.32 3.405 8.103 4.88 10.304 5.46 21.551 9.415 33.079 11.148 22.862 3.437 44.447-4.89 62.629-18.326z" fill="#C67235"/> <path transform="scale(4)" d="m510.48 628.67c1.39-0.223 3.092-0.022 4.516 8e-3 10.578 1.788 18.2 5.979 25.944 13.264 5.107 3.425 9.562 7.676 14.27 11.609 6.901 5.765 14.244 11.372 20.465 17.87l-2.066 5.828-34.351 90.857c-2.845 7.853-26.813 69.082-27.819 69.658l-15.928-40.832c-3.469-8.591-8.428-18.119-10.408-27.12-2.826-4.25-4.458-9.527-6.211-14.285l-6.8-18.252-21.92-59.611c-0.969-2.002-1.578-4.289-2.302-6.397 4.42-2.823 8.392-6.534 12.462-9.845l23.75-19.226c4.855-5.019 9.34-8.833 16.091-11.054l0.832-0.264c3.138-1.016 6.234-1.629 9.475-2.208z" fill="#0B286C"/> <path transform="scale(4)" d="m528.22 664.15 3.17 28.981-0.535 0.091c-2.311 0.274-4.103 1.312-6.221 2.19-3.654 1.513-7.881 3.08-11.887 3.064-2.872-0.012-6.401-1.809-8.314-3.905-6.2-6.791-5.023-19.716-4.814-28.224 8.446 0.883 17.198 1.324 25.543-0.476 1.77-0.382 2.063-0.2 3.058-1.721z" fill="#1A3983"/> <path transform="scale(4)" d="m510.48 628.67c1.39-0.223 3.092-0.022 4.516 8e-3 10.578 1.788 18.2 5.979 25.944 13.264-1.866 3.529-4.037 6.159-7.108 8.71-1.689 1.404-3.909 2.666-5.343 4.287l-1.075 1.153c-1.92 1.395-3.792 3.166-6.102 3.838l-0.557 0.154c-3.385 0.968-7.177 1.36-10.693 1.387-4.391 0.034-6.877-0.795-10.004-3.925-0.786-0.786-1.535-1.242-2.522-1.749l-0.403-0.201-0.982-1.06c-5.118-3.177-8.917-7.238-12.069-12.34 4.855-5.019 9.34-8.833 16.091-11.054l0.832-0.264c3.138-1.016 6.234-1.629 9.475-2.208z" fill="#1A3983"/> <path transform="scale(4)" d="m540.94 641.94c5.107 3.425 9.562 7.676 14.27 11.609 6.901 5.765 14.244 11.372 20.465 17.87l-2.066 5.828-34.351 90.857-7.86-74.98-3.17-28.981-0.814-8.053 1.075-1.153c1.434-1.621 3.654-2.883 5.343-4.287 3.071-2.551 5.242-5.181 7.108-8.71z" fill="#FEFEFE"/> <path transform="scale(4)" d="m540.94 641.94c5.107 3.425 9.562 7.676 14.27 11.609 6.901 5.765 14.244 11.372 20.465 17.87l-2.066 5.828-45.12-22.31c1.434-1.621 3.654-2.883 5.343-4.287 3.071-2.551 5.242-5.181 7.108-8.71z" fill="#A7D4D9"/> <path transform="scale(4)" d="m447.86 671.27c4.42-2.823 8.392-6.534 12.462-9.845l23.75-19.226c3.152 5.102 6.951 9.163 12.069 12.34l0.982 1.06-12.03 114.22c-2.826-4.25-4.458-9.527-6.211-14.285l-6.8-18.252-21.92-59.611c-0.969-2.002-1.578-4.289-2.302-6.397z" fill="#FEFEFE"/> <path transform="scale(4)" d="m447.86 671.27c4.42-2.823 8.392-6.534 12.462-9.845l23.75-19.226c3.152 5.102 6.951 9.163 12.069 12.34-9.347 2.952-18.143 8.14-26.708 12.84l-19.271 10.288c-0.969-2.002-1.578-4.289-2.302-6.397z" fill="#A7D4D9"/> <path transform="scale(4)" d="m119.9 716.98c-53.805-101.6-65.626-224.29-31.849-334.25 34.41-112.02 112.83-207.14 216.47-262.01 53.561-28.355 113.73-46.528 174.23-51.205 26.337-2.0361 52.389-1.1405 78.622 1.6966 28.398 3.0713 56.05 8.3494 83.358 16.796 32.271 9.9813 64.748 23.698 93.882 40.841 15.592 9.174 30.223 19.713 44.508 30.781 10.126 7.846 20.29 15.731 29.764 24.364 36.727 33.465 68.541 74.283 91.677 118.25 14.011 26.624 25.698 54.228 34.209 83.112 24.317 82.522 24.264 174.35-1.309 256.49l-30.454 75.148-142.04-0.014-0.116-0.495c-0.909-0.973-1.51-2.865-1.978-4.125-1.547-4.167-2.529-8.595-3.821-12.853l-7.056-21c-3.285-8.693-7.218-18.027-12.668-25.607-7.656-10.65-18.522-17.777-30.431-22.849-4.443-1.892-9.289-3.75-14.065-4.525-10.945-1.775-20.391-5.565-30.49-10.025l-15.207-5.913-42.224-13.467c-13.287-6.42-27.558-15.337-38.073-25.75l-0.122-0.453c-0.839-3.004-0.672-6.021-0.691-9.11l-0.029-14.015-0.143-10.431c-18.182 13.436-39.767 21.763-62.629 18.326-11.528-1.733-22.775-5.688-33.079-11.148-2.783-1.475-5.355-3.336-8.103-4.88l-0.029 11.45c0.017 4.747 1.172 22.43-1.109 25.425l-17.28 10.973c-6.28 3.996-11.977 7.701-19.093 10.112l-27.663 8.438c-5.889 1.801-12.279 3.311-17.744 6.225l-12.222 4.262-23.952 6.999c-4.581 1.309-9.304 2.436-13.731 4.213-11.783 4.731-21.616 11.6-30.401 20.723-6.45 6.699-11.963 14.03-16.303 22.277l-8.667 19.75-8.309 27.457-143.64 0.022z" fill="#A7D4D9"/> <path transform="scale(4)" d="m722.26 207.05c5.377 1.959 12.44 3.569 16.151 8.203 0.264 1.748 0.235 2.644-0.259 4.341-1.799 1.973-4.285 2.705-6.665 3.77l-9.129 4.182c0.287-2.008 0.059-4.397 0.065-6.442l-0.163-14.054z" fill="#0B286C"/> <path transform="scale(4)" d="m295.53 213.52c0.304-0.338 0.19-0.244 0.63-0.56 3.527-2.528 8.8-3.856 12.839-5.45l21.858-8.762 76.033-31.413 87.03-35.805 14.302-5.947c0.823-0.305 2.785-1.226 3.619-1.218 2.298 0.023 6.328 1.981 8.589 2.805l36.373 14.606 120.76 47.631 21.133 8.517c4.115 1.695 8.355 4.153 12.751 4.895l0.549 0.085-0.143 21.877c-0.033 2.321-0.05 4.584-0.392 6.886l-42.436 19.93-38.256 18.106c-1.2 7.874-0.114 16.658-0.327 24.665l-49.96 15.021c-5.488 1.838-11.976 2.431-17.701 3.459-12.633 2.268-25.706 4.45-38.533 5.081-13.412 0.661-26.676-0.347-40-1.643-13.732-1.335-27.688-2.925-41-6.753l-33.774-10.843c-4.618-1.512-9.905-3.922-14.709-4.528l-3.209-0.563c1.086-9.693 0.399-20.041 0.37-29.822l-24.24-11.149-47.973-22.241c-7.576-3.52-16.221-6.664-23.345-10.935-1.182-0.709-1.703-1.493-2.326-2.697 0.142-1.975 0.039-1.903 1.487-3.235z" fill="#1A3983"/> <path transform="scale(4)" d="m295.53 213.52c4.761 3.179 10.455 4.229 15.833 6.017l52.223 15.669 28.431 8.751-0.09 19.82-24.24-11.149-47.973-22.241c-7.576-3.52-16.221-6.664-23.345-10.935-1.182-0.709-1.703-1.493-2.326-2.697 0.142-1.975 0.039-1.903 1.487-3.235z" fill="#03154B"/> <path transform="scale(4)" d="m630.57 250.23c0.359-2.012 0.347-4.128 0.453-6.17 4.702-2.306 11.237-3.275 16.371-4.664l34.632-9.435c8.479-2.24 18.249-3.998 26.155-7.722 1.069-0.504 1.903-0.824 3.066-1.028l0.605 3.563c-0.033 2.321-0.05 4.584-0.392 6.886l-42.436 19.93-38.256 18.106-0.198-19.466z" fill="#03154B"/> <path transform="scale(4)" d="m580.02 210.6c-42.915-12.547-86.504-12.615-129.77-1.806-15.242 3.807-29.675 8.549-43.5 16.186-3.523 1.946-7.09 4.143-10.324 6.535-1.314 0.971-4.076 4.076-5.426 4.443-0.436 0.119-1.665-0.162-2.172-0.211-1.583-1.119-2.146-1.572-2.463-3.514-0.532-3.251-0.353-7.279 1.682-9.898 4.539-5.839 11.509-9.404 17.989-12.639 22.949-11.457 47.354-17.326 72.808-19.988 43.206-4.52 89.927-0.352 129.92 17.391 7.763 3.445 16.577 7.737 23.168 13.148 2.524 2.072 4.157 4.126 4.459 7.479 0.198 2.197 0.501 6.173-0.646 8.076-1.91 0.253-3.345 0.122-5.22-0.307-14.993-12.72-32.116-18.775-50.513-24.895z" fill="#03154B"/> <path transform="scale(4)" d="m580.02 210.6c18.397 6.12 35.52 12.175 50.513 24.895l0.043 14.734 0.198 19.466c-1.2 7.874-0.114 16.658-0.327 24.665l-49.96 15.021c-0.814-1.85-0.387-5.217-0.389-7.298l-0.017-19.016-0.061-72.467z" fill="#2A4FA0"/> <path transform="scale(4)" d="m712 202.9c3.025-0.508 5.826-0.54 8.752 0.465 1.028 1.342 1.271 2.009 1.511 3.683l0.163 14.054c-6e-3 2.045 0.222 4.434-0.065 6.442l-0.088 57.066c8.61 6.285 16.115 13.496 23.729 20.919 45.804 44.661 73.915 104.86 83.633 167.69 12.24 79.135-10.57 164.72-57.964 228.94-3.325 4.506-8.559 9.281-10.822 14.315-0.909-0.973-1.51-2.865-1.978-4.125-1.547-4.167-2.529-8.595-3.821-12.853l-7.056-21c-3.285-8.693-7.218-18.027-12.668-25.607-7.656-10.65-18.522-17.777-30.431-22.849-4.443-1.892-9.289-3.75-14.065-4.525-10.945-1.775-20.391-5.565-30.49-10.025l-15.207-5.913-42.224-13.467c-13.287-6.42-27.558-15.337-38.073-25.75l-0.122-0.453c-0.839-3.004-0.672-6.021-0.691-9.11l-0.029-14.015-0.143-10.431c4.808-5.21 10.744-9.448 15.681-14.663 18.167-19.194 28.609-42.453 34.688-67.894 2.02 0.623 4.167 0.949 6.282 0.693 8.079-0.977 18.12-9.47 23.076-15.442 8.385-10.106 12.882-23.765 11.581-36.87-0.704-7.099-3.343-15.89-9.242-20.403-5.352-4.095-12.287-2.628-18.384-1.896 0.44-8.171 2.209-16.423 2.797-24.63 0.828-11.532 0.31-23.352 0.294-34.915 0.518-2.371 0.297-5.026 0.302-7.447 9e-3 -4.068 0.127-8.145-0.341-12.192l-0.139-6.333c0.213-8.007-0.873-16.791 0.327-24.665l38.256-18.106 42.436-19.93c0.342-2.302 0.359-4.565 0.392-6.886l0.143-21.877z" fill="#53AAB8"/> <path transform="scale(4)" d="m733.93 347.26 8.119 0.152c-0.875 8.062-0.556 16.291-0.545 24.393l0.01 36.136c-4e-3 5.098 0.348 10.494-0.05 15.564-0.069 0.881-0.194 2.114-0.968 2.632-1.828 1.225-4.511 0.857-6.594 0.759l0.028-79.636z" fill="#F8B24B"/> <path transform="scale(4)" d="m729.5 347.11 4.43 0.143-0.028 79.636-4.878 0.121-3.039-0.043 0.047-79.861 3.468 4e-3z" fill="#FCD11F"/> <path transform="scale(4)" d="m726.04 347.11 3.468 4e-3 -0.476 79.9-3.039-0.043 0.047-79.861z" fill="#C67235"/> <path transform="scale(4)" d="m697.06 347.55 3.947-0.104 0.034 79.561-3.707 0.02c-1.817 4e-3 -5.077 0.448-6.586-0.554-1.143-2.848-0.723-6.386-0.71-9.436l-4e-3 -14.807-0.092-54.688 7.118 8e-3z" fill="#F8B24B"/> <path transform="scale(4)" d="m697.06 347.55 3.947-0.104 0.034 79.561-3.707 0.02 0.112-0.842c0.791-3.257 0.279-6.246 0.257-9.583l-0.117-20.167c-0.049-2.04-0.487-4.035-0.51-6.043l-0.016-42.842z" fill="#FCD11F"/> <path transform="scale(4)" d="m711.46 231.66c1.392 5.243 0.621 11.899 0.593 17.37l-0.084 28.447-20.791-13.104c-7.332-4.153-15.529-7.57-22.154-12.783l42.436-19.93z" fill="#A7D4D9"/> <path transform="scale(4)" d="m711.22 347.1 8.971-0.048 3.511 7e-3 2.333 0.053-0.047 79.861-2.147 0.123-3.344-0.04c-1.089 0.16-2.12 0.372-3.213 0.163-2.013-0.385-4.203-0.248-6.256-0.269l-2.133 0.124-3.886-0.063-3.967-2e-3 -0.034-79.561 4.31-0.138 2.698-0.251 3.204 0.041z" fill="#FCD11F"/> <path transform="scale(4)" d="m720.19 347.05 3.511 7e-3 2.333 0.053-0.047 79.861-2.147 0.123-3.344-0.04c1.811-9.578 0.308-20.797 0.165-30.552l-0.471-49.452z" fill="#C67235"/> <path transform="scale(4)" d="m723.7 347.06 2.333 0.053-0.047 79.861-2.147 0.123-0.139-80.037z" fill="#FCD11F"/> <path transform="scale(4)" d="m708.02 347.06 3.204 0.041-0.192 79.85-2.133 0.124-3.886-0.063-3.967-2e-3 -0.034-79.561 4.31-0.138 2.698-0.251z" fill="#FCD11F"/> <path transform="scale(4)" d="m708.02 347.06 3.204 0.041-0.192 79.85-2.133 0.124-0.879-80.015z" fill="#C67235"/> <path transform="scale(4)" d="m701.01 347.44 4.31-0.138-0.309 79.701-3.967-2e-3 -0.034-79.561z" fill="#C67235"/> <path transform="scale(4)" d="m712 202.9c3.025-0.508 5.826-0.54 8.752 0.465 1.028 1.342 1.271 2.009 1.511 3.683l0.163 14.054c-6e-3 2.045 0.222 4.434-0.065 6.442l-0.088 57.066-0.304 20.089c7.935 3.214 13.664 6.288 17.215 14.49 1.922 4.44 0.065 10.142 2.178 13.838 2.069 2.917 1.163 10.709 0.693 14.381l-8.119-0.152-4.43-0.143-3.468-4e-3 -2.333-0.053-3.511-7e-3 -8.971 0.048-3.204-0.041-2.698 0.251-4.31 0.138-3.947 0.104-7.118-8e-3c-0.708-4.681-0.514-9.424 0.25-14.08 1.224-6.098 0.952-12.565 4.378-18.005 3.741-5.942 9.92-9.332 16.639-10.691l0.778-0.154-0.017-27.131 0.084-28.447c0.028-5.471 0.799-12.127-0.593-17.37 0.342-2.302 0.359-4.565 0.392-6.886l0.143-21.877z" fill="#FCD11F"/> <path transform="scale(4)" d="m741.36 333.03c2.069 2.917 1.163 10.709 0.693 14.381l-8.119-0.152-4.43-0.143-3.468-4e-3 -2.333-0.053-3.511-7e-3 -8.971 0.048-3.204-0.041-2.698 0.251-4.31 0.138-3.947 0.104-7.118-8e-3c-0.708-4.681-0.514-9.424 0.25-14.08l51.166-0.434z" fill="#FEFEFE"/> <path transform="scale(4)" d="m367.69 252.62 24.24 11.149c0.029 9.781 0.716 20.129-0.37 29.822l3.209 0.563c4.804 0.606 10.091 3.016 14.709 4.528l33.774 10.843c13.312 3.828 27.268 5.418 41 6.753 13.324 1.296 26.588 2.304 40 1.643 12.827-0.631 25.9-2.813 38.533-5.081 5.725-1.028 12.213-1.621 17.701-3.459l49.96-15.021 0.139 6.333c0.468 4.047 0.35 8.124 0.341 12.192-5e-3 2.421 0.216 5.076-0.302 7.447 0.016 11.563 0.534 23.383-0.294 34.915-0.588 8.207-2.357 16.459-2.797 24.63 6.097-0.732 13.032-2.199 18.384 1.896 5.899 4.513 8.538 13.304 9.242 20.403 1.301 13.105-3.196 26.764-11.581 36.87-4.956 5.972-14.997 14.465-23.076 15.442-2.115 0.256-4.262-0.07-6.282-0.693-6.079 25.441-16.521 48.7-34.688 67.894-4.937 5.215-10.873 9.453-15.681 14.663-18.182 13.436-39.767 21.763-62.629 18.326-11.528-1.733-22.775-5.688-33.079-11.148-2.783-1.475-5.355-3.336-8.103-4.88l-0.029 11.45c0.017 4.747 1.172 22.43-1.109 25.425l-17.28 10.973c-6.28 3.996-11.977 7.701-19.093 10.112l-27.663 8.438c-5.889 1.801-12.279 3.311-17.744 6.225l-12.222 4.262-23.952 6.999c-4.581 1.309-9.304 2.436-13.731 4.213-11.783 4.731-21.616 11.6-30.401 20.723-6.45 6.699-11.963 14.03-16.303 22.277l-8.667 19.75-0.697-0.656c-5.646-5.503-10.183-14.169-14.285-20.915-27.999-46.045-42.126-103.52-41.325-157.18 1.216-81.525 38.376-163.58 98.978-218.15 9.583-8.628 19.857-16.489 30.478-23.794l14.222-9.805c2.771-1.909 5.718-3.646 8.124-6.021l0.349-0.356z" fill="#53AAB8"/> <path transform="scale(4)" d="m391.56 293.59 3.209 0.563c4.804 0.606 10.091 3.016 14.709 4.528l33.774 10.843c13.312 3.828 27.268 5.418 41 6.753 13.324 1.296 26.588 2.304 40 1.643 12.827-0.631 25.9-2.813 38.533-5.081 5.725-1.028 12.213-1.621 17.701-3.459l49.96-15.021 0.139 6.333c0.468 4.047 0.35 8.124 0.341 12.192-5e-3 2.421 0.216 5.076-0.302 7.447 0.016 11.563 0.534 23.383-0.294 34.915-0.588 8.207-2.357 16.459-2.797 24.63 6.097-0.732 13.032-2.199 18.384 1.896 5.899 4.513 8.538 13.304 9.242 20.403 1.301 13.105-3.196 26.764-11.581 36.87-4.956 5.972-14.997 14.465-23.076 15.442-2.115 0.256-4.262-0.07-6.282-0.693-6.079 25.441-16.521 48.7-34.688 67.894-4.937 5.215-10.873 9.453-15.681 14.663-18.182 13.436-39.767 21.763-62.629 18.326-11.528-1.733-22.775-5.688-33.079-11.148-2.783-1.475-5.355-3.336-8.103-4.88-22.096-16.298-36.814-40.14-47.481-65.082l-7.442-19.103c-0.179-0.413-0.39-0.853-0.849-1.05-1.053-0.454-3.765-0.355-5.016-0.519-2.943-0.385-5.8-1.026-8.591-2.044-9.607-3.506-16.643-10.814-20.848-20.05-4.874-10.705-7.428-23.799-3.097-35.106 2.161-5.641 6.685-10.324 12.286-12.587 5.528-2.234 11.652-0.435 16.835 1.92-1.972-11.215-3.58-22.75-4.137-34.134l-0.38-30.555 0.086-21.26 0.154-5.489z" fill="#F8B24B"/> <path transform="scale(4)" d="m495.05 442.96c1.05 4.894 2.52 9.754 6.781 12.867 2.986 2.181 7.099 3.43 10.78 2.831l0.641-0.116c2.707-0.463 4.942-1.318 7.343-2.656l0.462-0.262 0.439 0.375-2.121 2.692c-3.412 2.728-6.597 3.534-10.904 3.257-6.587-0.424-11.019-2.947-15.356-7.797-0.287-3.589 0.928-7.756 1.935-11.191z" fill="#C67235"/> <path transform="scale(4)" d="m564.11 397.15c1.882 0.119 3.928 0.126 5.643 1 3.795 1.935 6.162 5.167 7.325 9.233 1.016 3.552 0.233 7.942-1.587 11.122-2.356 4.119-6.501 5.871-10.85 7.095-2.138-0.366-3.949-0.871-5.834-1.975-3.251-1.905-6.551-5.555-7.239-9.371-0.68-3.771 0.62-8.461 2.88-11.522 2.377-3.217 5.769-5.026 9.662-5.582z" fill="#03154B"/> <path transform="scale(4)" d="m558.51 401.25c0.952-0.213 2.011-0.168 2.987-0.21 1.261 0.66 2.142 1.344 2.644 2.71 0.447 1.216 0.462 2.561-0.101 3.75-0.807 1.709-1.693 1.984-3.293 2.71-0.572 0.137-1.154 0.308-1.75 0.3-1.439-0.02-2.268-0.925-3.151-1.902-0.704-0.778-0.94-2.359-0.772-3.378 0.338-2.037 1.811-3.006 3.436-3.98z" fill="#FEFEFE"/> <path transform="scale(4)" d="m454.75 397.02c1.961-0.051 4.189 0.171 6.047 0.817 4.06 1.412 6.612 4.514 8.451 8.238 1.77 3.584 1.598 7.508 0.14 11.172-1.889 4.751-5.634 6.851-10.096 8.746-2.248 0.019-4.172-0.201-6.294-0.986-3.722-1.377-6.486-3.972-8.044-7.643-1.825-4.299-1.708-9.255 0.272-13.484 1.776-3.795 5.843-5.458 9.524-6.86z" fill="#03154B"/> <path transform="scale(4)" d="m451.4 401.75c0.223 8e-3 0.444 0.052 0.664 0.091 1.694 0.296 2.973 0.84 3.849 2.468 0.952 1.767 0.573 3.655-0.044 5.441-1.366 1.257-2.376 1.647-4.154 2.135-2.798-0.435-3.383-0.911-5.019-3.135-0.092-1.207-0.304-1.99 0.171-3.141 0.882-2.133 2.456-3.084 4.533-3.859z" fill="#FEFEFE"/> <path transform="scale(4)" d="m473.59 477.34c4.62 1.609 9.299 3.357 14.107 4.309 16.045 3.177 33.326 1.679 49.595 1.343l-0.308 0.413c-2.239 2.957-4.427 5.439-7.159 7.961-5.724 4.305-11.724 6.957-18.958 7.264-3.659 0.155-6.846-1.011-10.196-2.34-10.357-4.106-18.999-11.464-27.081-18.95z" fill="#FEFEFE"/> <path transform="scale(4)" d="m383.15 396.25 1.439-0.218c2.693-0.182 4.759 0.873 6.714 2.59 9.581 8.418 8.422 26.608 9.302 38.193l-6.205-0.386-2.017-0.728c-6.941-2.831-11.14-10.182-13.862-16.779-2.074-5.029-3.643-11.675-1.335-16.896 1.221-2.761 3.159-4.642 5.964-5.776z" fill="#C67235"/> <path transform="scale(4)" d="m636.08 392.75c0.975-0.225 2.178-0.355 3.169-0.219 1.788 0.246 3.673 1.803 4.698 3.219 2.802 3.872 2.154 9.401 1.214 13.786-2.232 10.417-7.618 19.482-16.601 25.375l-0.232 0.066c-2.731 0.903-4.811 1.256-7.695 0.871-1.514-3.143 0.418-11.048 0.615-14.74 0.215-4.016-0.553-9.227 0.621-13.004 2.06-6.628 8.073-12.413 14.211-15.354z" fill="#C67235"/> <path transform="scale(4)" d="m560.53 361.22c5.036-0.328 11.269-0.265 16.159 1.026l0.808 0.229c3.423 0.951 6.291 2.234 8.997 4.585 4.203 3.65 4.766 9.325 5.137 14.517l-18.014-2.834c-10.656-1.615-21.492 2.465-31.963 0.712l-0.165-15.481c6.216-1.914 12.594-2.344 19.041-2.754z" fill="#5E1E1C"/> <path transform="scale(4)" d="m451.98 361.21c9.185-0.637 17.868 0.279 26.744 2.58l-0.766 16.227-20.666-1.521-27.25 1.69c-0.135-2.849-0.327-5.999 0.289-8.79l0.155-0.647c0.357-1.532 0.759-2.904 1.799-4.132 4.171-4.928 13.736-4.883 19.695-5.407z" fill="#5E1E1C"/> <path transform="scale(4)" d="m391.32 320.34c11.116 7.347 23.472 11.545 36.1 15.508-6.605 14.318-11.828 28.874-14.417 44.477l-2.42 17.672-0.811 11.669c-0.152 2.161-0.093 4.382-1.02 6.372l-0.834 0.122c-2.732-2.515-4.096-6.734-5.396-10.163-2.626-6.926-4.906-13.769-6.685-20.968-1.972-11.215-3.58-22.75-4.137-34.134l-0.38-30.555z" fill="#5E1E1C"/> <path transform="scale(4)" d="m591.28 335.85c13.324-4.598 26.944-8.729 39.343-15.513 0.016 11.563 0.534 23.383-0.294 34.915-0.588 8.207-2.357 16.459-2.797 24.63-5.177 3.618-13.042 31.654-16.74 39.11-0.187-9.726-0.163-19.66-1.435-29.319-2.522-19.155-9.872-36.51-18.077-53.823z" fill="#5E1E1C"/> <path transform="scale(4)" d="m391.56 293.59 3.209 0.563c4.804 0.606 10.091 3.016 14.709 4.528l33.774 10.843c13.312 3.828 27.268 5.418 41 6.753 13.324 1.296 26.588 2.304 40 1.643 12.827-0.631 25.9-2.813 38.533-5.081 5.725-1.028 12.213-1.621 17.701-3.459l49.96-15.021 0.139 6.333c0.468 4.047 0.35 8.124 0.341 12.192-5e-3 2.421 0.216 5.076-0.302 7.447-12.399 6.784-26.019 10.915-39.343 15.513l-11.329 3.495c-34.555 9.971-72.348 11.972-107.87 7.005-10.62-1.486-21.336-3.921-31.759-6.427l-12.907-4.07c-12.628-3.963-24.984-8.161-36.1-15.508l0.086-21.26 0.154-5.489z" fill="#03154B"/> <path transform="scale(4)" d="m630.58 300.7c0.468 4.047 0.35 8.124 0.341 12.192-5e-3 2.421 0.216 5.076-0.302 7.447-12.399 6.784-26.019 10.915-39.343 15.513l-11.329 3.495c0.697-7.988 1.43-15.576 0.526-23.607l50.107-15.04z" fill="#2A4FA0"/> <path transform="scale(4)" d="m391.4 299.08 48.589 15.539 0.332 25.299-12.907-4.07c-12.628-3.963-24.984-8.161-36.1-15.508l0.086-21.26z" fill="#0B286C"/> <path transform="scale(4)" d="m439.99 314.62c9.116 2.802 18.6 4.421 28.007 5.895 31.577 4.949 62.322 3.684 93.837-1.019 6.305-0.941 12.396-2.726 18.639-3.762 0.904 8.031 0.171 15.619-0.526 23.607-34.555 9.971-72.348 11.972-107.87 7.005-10.62-1.486-21.336-3.921-31.759-6.427l-0.332-25.299z" fill="#1A3983"/> </svg>